<svg width="49" height="49" viewBox="0 0 49 49" fill="none" xmlns="http://www.w3.org/2000/svg">
<path d="M23.4677 0.501844C23.8522 -0.167309 24.8175 -0.167308 25.2019 0.501845L28.0195 5.40635C28.31 5.91199 28.9697 6.06283 29.4511 5.73365L34.1684 2.50766C34.8077 2.07044 35.68 2.49471 35.7307 3.26759L36.0969 8.84509C36.1354 9.43219 36.67 9.8593 37.2512 9.76726L42.9017 8.87236C43.673 8.75021 44.2804 9.51961 43.9826 10.2414L41.8601 15.3858C41.6333 15.9358 41.9337 16.561 42.5049 16.7273L47.9489 18.3131C48.7033 18.5329 48.9212 19.497 48.3345 20.0198L44.1527 23.7459C43.7064 24.1436 43.7064 24.8414 44.1527 25.2391L48.3345 28.9652C48.9212 29.488 48.7033 30.4521 47.9489 30.6719L42.5049 32.2577C41.9337 32.424 41.6333 33.0492 41.8601 33.5991L43.9826 38.7435C44.2804 39.4654 43.673 40.2348 42.9017 40.1126L37.2512 39.2177C36.67 39.1257 36.1354 39.5528 36.0969 40.1399L35.7307 45.7174C35.68 46.4903 34.8077 46.9146 34.1684 46.4773L29.4511 43.2513C28.9697 42.9222 28.31 43.073 28.0195 43.5786L25.2019 48.4831C24.8175 49.1523 23.8522 49.1523 23.4677 48.4831L20.6502 43.5786C20.3597 43.073 19.6999 42.9222 19.2186 43.2513L14.5013 46.4773C13.862 46.9146 12.9897 46.4903 12.939 45.7174L12.5728 40.1399C12.5343 39.5528 11.9997 39.1257 11.4185 39.2177L5.76795 40.1126C4.99672 40.2348 4.3893 39.4654 4.68711 38.7436L6.80954 33.5991C7.03642 33.0492 6.73594 32.424 6.16479 32.2577L0.720824 30.6719C-0.0336627 30.4521 -0.251493 29.488 0.335225 28.9652L4.51694 25.2391C4.96325 24.8414 4.96325 24.1436 4.51694 23.7459L0.335225 20.0198C-0.251493 19.497 -0.0336635 18.5329 0.720823 18.3131L6.16479 16.7273C6.73594 16.561 7.03642 15.9358 6.80954 15.3858L4.68711 10.2414C4.3893 9.51961 4.99671 8.75021 5.76795 8.87236L11.4185 9.76726C11.9997 9.8593 12.5343 9.43219 12.5728 8.84509L12.939 3.26759C12.9897 2.49471 13.862 2.07044 14.5013 2.50766L19.2186 5.73365C19.6999 6.06283 20.3597 5.91199 20.6502 5.40635L23.4677 0.501844Z" fill="#ECD979"/>
</svg>
